<svg xmlns="http://www.w3.org/2000/svg" xmlns:xlink="http://www.w3.org/1999/xlink" viewBox="0,0,256,256" width="32px" height="32px" fill-rule="nonzero"><defs><linearGradient x1="11.322" y1="7.655" x2="23.477" y2="19.81" gradientUnits="userSpaceOnUse" id="color-1"><stop offset="0" stop-color="#ffffff" stop-opacity="0.94902"></stop><stop offset="1" stop-color="#ffffff" stop-opacity="0.50196"></stop></linearGradient><linearGradient x1="11.322" y1="7.655" x2="23.477" y2="19.81" gradientUnits="userSpaceOnUse" id="color-2"><stop offset="0" stop-color="#ffffff" stop-opacity="0.6"></stop><stop offset="0.493" stop-color="#ffffff" stop-opacity="0"></stop><stop offset="0.997" stop-color="#ffffff" stop-opacity="0.30196"></stop></linearGradient></defs><g fill="none" fill-rule="nonzero" stroke="none" stroke-width="1" stroke-linecap="butt" stroke-linejoin="miter" stroke-miterlimit="10" stroke-dasharray="" stroke-dashoffset="0" font-family="none" font-weight="none" font-size="none" text-anchor="none" style="mix-blend-mode: normal"><g transform="scale(8,8)"><path d="M13.05,29c-1.095,0 -1.978,-0.424 -2.826,-1.554l-6.571,-8.231c-0.495,-0.6 -0.742,-1.307 -0.742,-2.014c0,-1.448 1.06,-2.614 2.543,-2.614c0.883,0 1.59,0.283 2.367,1.342l5.087,6.783l11.27,-18.228c0.565,-0.989 1.378,-1.484 2.226,-1.484c1.413,0 2.685,0.919 2.685,2.438c0,0.706 -0.389,1.448 -0.812,2.084l-12.577,19.924c-0.671,1.059 -1.59,1.554 -2.65,1.554z" fill="url(#color-1)"></path><path d="M26.404,3.5c1.086,0 2.185,0.666 2.185,1.938c0,0.48 -0.238,1.071 -0.735,1.817l-12.577,19.923c-0.556,0.877 -1.305,1.322 -2.227,1.322c-0.989,0 -1.714,-0.405 -2.435,-1.366l-6.575,-8.237c-0.411,-0.499 -0.628,-1.085 -0.628,-1.696c0,-1.205 0.879,-2.114 2.043,-2.114c0.697,0 1.269,0.19 1.967,1.142l5.087,6.783l0.44,0.586l0.385,-0.624l11.278,-18.242c0.454,-0.795 1.09,-1.232 1.792,-1.232M26.404,3c-0.848,0 -1.66,0.495 -2.226,1.484l-11.269,18.228l-5.087,-6.783c-0.777,-1.06 -1.484,-1.342 -2.367,-1.342c-1.484,0 -2.543,1.166 -2.543,2.614c0,0.707 0.247,1.413 0.742,2.014l6.571,8.231c0.847,1.13 1.73,1.554 2.825,1.554c1.06,0 1.978,-0.495 2.649,-1.554l12.577,-19.924c0.424,-0.636 0.812,-1.378 0.812,-2.084c0,-1.519 -1.271,-2.438 -2.684,-2.438z" fill="url(#color-2)"></path></g></g></svg>