<svg xmlns="http://www.w3.org/2000/svg"  viewBox="0 0 32 32" width="32px" height="32px" baseProfile="basic"><linearGradient id="BCY4B1YTsxnItishvKAD1a" x1="11.322" x2="23.477" y1="7.655" y2="19.81" gradientUnits="userSpaceOnUse"><stop offset="0" stop-color="#39ff36" stop-opacity=".95"/><stop offset="1" stop-color="#39ff36" stop-opacity=".5"/></linearGradient><path fill="url(#BCY4B1YTsxnItishvKAD1a)" d="M13.05,29c-1.095,0-1.978-0.424-2.826-1.554l-6.571-8.231 c-0.495-0.6-0.742-1.307-0.742-2.014c0-1.448,1.06-2.614,2.543-2.614c0.883,0,1.59,0.283,2.367,1.342l5.087,6.783L24.178,4.484 C24.743,3.495,25.556,3,26.404,3c1.413,0,2.685,0.919,2.685,2.438c0,0.706-0.389,1.448-0.812,2.084L15.7,27.446 C15.029,28.505,14.11,29,13.05,29z"/><linearGradient id="BCY4B1YTsxnItishvKAD1b" x1="11.322" x2="23.477" y1="7.655" y2="19.81" gradientUnits="userSpaceOnUse"><stop offset="0" stop-color="#fff" stop-opacity=".6"/><stop offset=".493" stop-color="#fff" stop-opacity="0"/><stop offset=".997" stop-color="#fff" stop-opacity=".3"/></linearGradient><path fill="url(#BCY4B1YTsxnItishvKAD1b)" d="M26.404,3.5 c1.086,0,2.185,0.666,2.185,1.938c0,0.48-0.238,1.071-0.735,1.817L15.277,27.178c-0.556,0.877-1.305,1.322-2.227,1.322 c-0.989,0-1.714-0.405-2.435-1.366L4.04,18.897c-0.411-0.499-0.628-1.085-0.628-1.696c0-1.205,0.879-2.114,2.043-2.114 c0.697,0,1.269,0.19,1.967,1.142l5.087,6.783l0.44,0.586l0.385-0.624L24.612,4.732C25.066,3.937,25.702,3.5,26.404,3.5 M26.404,3 c-0.848,0-1.66,0.495-2.226,1.484L12.909,22.712l-5.087-6.783c-0.777-1.06-1.484-1.342-2.367-1.342 c-1.484,0-2.543,1.166-2.543,2.614c0,0.707,0.247,1.413,0.742,2.014l6.571,8.231C11.072,28.576,11.955,29,13.05,29 c1.06,0,1.978-0.495,2.649-1.554L28.276,7.522c0.424-0.636,0.812-1.378,0.812-2.084C29.088,3.919,27.817,3,26.404,3L26.404,3z"/></svg>